# xmcd
#
# Track frame offsets:
#	182
#	19245
#	39402
#	61292
#	75377
#	89717
#	106350
#	122120
#	144065
#	161332
#	179917
#	196997
#
# Disc length: 2830 seconds
#
# Revision: 1
# Processed by: cddbd v1.5PL3 Copyright (c) Steve Scherf et al.
# Submitted via: audiograbber 1.82.01
#
DISCID=9c0b0c0c
DTITLE=Dyango - Alma, corazón y vida
DYEAR=1992
DGENRE=Balada
TTITLE0=Alma, corazón y vida
TTITLE1=Sentimientos
TTITLE2=Caminemos
TTITLE3=Señor Muñóz
TTITLE4=Canto a los ojos negros de una mujer española
TTITLE5=Señora mía
TTITLE6=Nostalgia
TTITLE7=Adios amor adios
TTITLE8=Yo mañana
TTITLE9=Cancion para una chica sola y triste
TTITLE10=Muchacha (ojos de papel)
TTITLE11=Cuando quieras, donde quieras
EXTD=
EXTT0=
EXTT1=
EXTT2=
EXTT3=
EXTT4=
EXTT5=
EXTT6=
EXTT7=
EXTT8=
EXTT9=
EXTT10=
EXTT11=
PLAYORDER=
